<svg width="113" height="36" viewBox="0 0 113 36" fill="none" xmlns="http://www.w3.org/2000/svg">
<path d="M6.1001 10.584C7.48519 8.92188 9.22559 8.09082 11.3213 8.09082C15.5609 8.09082 17.7108 10.5539 17.771 15.48V28H12.5498V15.6245C12.5498 14.5044 12.3089 13.6794 11.8271 13.1494C11.3454 12.6074 10.5444 12.3364 9.42432 12.3364C7.89469 12.3364 6.78662 12.9266 6.1001 14.1069V28H0.878906V0.25H6.1001V10.584ZM30.7065 28.3613C27.84 28.3613 25.5034 27.4821 23.6968 25.7236C21.9022 23.9652 21.0049 21.6226 21.0049 18.6958V18.1899C21.0049 16.2267 21.3843 14.4743 22.1431 12.9326C22.9019 11.3789 23.9738 10.1865 25.3589 9.35547C26.756 8.51237 28.3459 8.09082 30.1284 8.09082C32.8022 8.09082 34.904 8.93392 36.4336 10.6201C37.9753 12.3063 38.7461 14.6971 38.7461 17.7925V19.9243H26.2983C26.467 21.201 26.9728 22.2248 27.8159 22.9956C28.6711 23.7664 29.749 24.1519 31.0498 24.1519C33.0612 24.1519 34.633 23.4232 35.7651 21.9658L38.3306 24.8384C37.5477 25.9465 36.4878 26.8136 35.1509 27.4399C33.814 28.0542 32.3325 28.3613 30.7065 28.3613ZM30.1104 12.3184C29.0745 12.3184 28.2314 12.6676 27.5811 13.3662C26.9427 14.0648 26.5332 15.0645 26.3525 16.3652H33.6152V15.9497C33.5911 14.7935 33.278 13.9022 32.6758 13.2759C32.0736 12.6375 31.2184 12.3184 30.1104 12.3184ZM48.7729 20.6108L52.3862 8.45215H57.9868L50.1279 31.0352L49.6943 32.0649C48.526 34.6183 46.599 35.895 43.9131 35.895C43.1543 35.895 42.3835 35.7806 41.6006 35.5518V31.5952L42.3955 31.6133C43.3831 31.6133 44.1178 31.4627 44.5996 31.1616C45.0934 30.8605 45.4788 30.3607 45.7559 29.6621L46.3701 28.0542L39.5229 8.45215H45.1416L48.7729 20.6108ZM77.0469 20.8999L79.6123 8.45215H84.6528L79.6665 28H75.2944L71.5908 15.6968L67.8872 28H63.5332L58.5469 8.45215H63.5874L66.1348 20.8818L69.7119 8.45215H73.4878L77.0469 20.8999ZM92.7646 28H87.5254V8.45215H92.7646V28ZM87.2183 3.39355C87.2183 2.61068 87.4772 1.96631 87.9951 1.46045C88.5251 0.95459 89.2417 0.70166 90.145 0.70166C91.0363 0.70166 91.7469 0.95459 92.2769 1.46045C92.8068 1.96631 93.0718 2.61068 93.0718 3.39355C93.0718 4.18848 92.8008 4.83887 92.2588 5.34473C91.7288 5.85059 91.0243 6.10352 90.145 6.10352C89.2658 6.10352 88.5552 5.85059 88.0132 5.34473C87.4832 4.83887 87.2183 4.18848 87.2183 3.39355ZM102.611 8.45215V29.0659C102.611 31.2218 102.039 32.896 100.895 34.0884C99.7503 35.2928 98.1003 35.895 95.9443 35.895C95.041 35.895 94.1799 35.7926 93.3608 35.5879V31.4507C93.9871 31.5591 94.5352 31.6133 95.0049 31.6133C96.5827 31.6133 97.3716 30.7762 97.3716 29.1021V8.45215H102.611ZM96.9561 3.39355C96.9561 2.61068 97.215 1.96631 97.7329 1.46045C98.2629 0.95459 98.9795 0.70166 99.8828 0.70166C100.786 0.70166 101.497 0.95459 102.015 1.46045C102.545 1.96631 102.81 2.61068 102.81 3.39355C102.81 4.18848 102.539 4.83887 101.997 5.34473C101.467 5.85059 100.762 6.10352 99.8828 6.10352C99.0036 6.10352 98.293 5.85059 97.751 5.34473C97.221 4.83887 96.9561 4.18848 96.9561 3.39355ZM106.965 25.4346C106.965 24.6035 107.242 23.929 107.796 23.4111C108.362 22.8932 109.067 22.6343 109.91 22.6343C110.765 22.6343 111.469 22.8932 112.023 23.4111C112.59 23.929 112.873 24.6035 112.873 25.4346C112.873 26.2536 112.596 26.922 112.042 27.4399C111.487 27.9458 110.777 28.1987 109.91 28.1987C109.055 28.1987 108.35 27.9458 107.796 27.4399C107.242 26.922 106.965 26.2536 106.965 25.4346Z" fill="black"/>
</svg>
